<svg width="128" height="128" xmlns="http://www.w3.org/2000/svg">
 <g>
   <path fill="#000000" d="m64.03125,8.40625c-15.26893,0 -29.11414,6.10032 -39.21875,16l14.59375,8.4375c6.78841,-5.29802 15.34208,-8.4375 24.625,-8.4375c22.11674,0 40.0625,17.91451 40.0625,40.03125c0,1.87939 -0.15553,3.72055 -0.40625,5.53125l14.65625,8.4375c1.14768,-4.46877 1.75,-9.14286 1.75,-13.96875c0,-30.9533 -25.1092,-56.03125 -56.0625,-56.03125zm-54.09375,41.34375c-1.26864,4.68304 -1.9375,9.60214 -1.9375,14.6875c0,30.9533 25.07795,56.0625 56.03125,56.0625c15.54006,0 29.59384,-6.34267 39.75,-16.5625l-14.53125,-8.40625c-6.88993,5.59693 -15.65553,8.96875 -25.21875,8.96875c-22.11674,0 -40.03125,-17.94576 -40.03125,-40.0625c0,-2.13918 0.17722,-4.2331 0.5,-6.28125l-14.5625,-8.40625z"/>
   <path fill="#000000" d="m32.12826,64.00089l-15.93561,0.03903l-15.93562,0.03904l7.93401,-13.82017l7.93401,-13.82017l8.0016,13.78114l8.00161,13.78113z"/>
   <path fill="#000000" d="m127.87828,64.26674l-15.93561,-0.03903l-15.93562,-0.03904l7.93401,13.82017l7.93401,13.82017l8.0016,-13.78114l8.00161,-13.78113z"/>
 </g>
</svg>
