<svg width="128" height="128" xmlns="http://www.w3.org/2000/svg">
 <g>
   <path fill="#000000" d="m23.96875,8.03125c-4.41952,0 -7.96875,3.58048 -7.96875,8c0,4.41952 3.54923,7.96875 7.96875,7.96875l40.09375,0l0,8l-56.0625,0c-4.432,0 -8,3.568 -8,8l0,64c0,4.432 3.568,8 8,8l3.34375,0l68.65625,-91.625l0,-4c0.0027,-0.06297 -0.0012,-0.12416 0,-0.1875c-0.0012,-0.05274 0.0022,-0.10378 0,-0.15625c0,-0.15953 -0.0221,-0.31159 -0.03125,-0.46875c-0.2442,-4.19665 -3.67751,-7.53125 -7.9375,-7.53125l-48.0625,0zm88.03125,23.96875l-16,10.59375l0,-2.59375c0,-0.74298 -0.09347,-1.47409 -0.28125,-2.15625l-55.5625,74.15625l47.84375,0c4.432,0 8,-3.568 8,-8l0,-2.59375l16,10.59375l16,0l0,-80l-16,0z"/>
   <path fill="#000000" transform="rotate(36.8504, 0, -924.362)" d="m641.24053,-248.32586c3.08192,0 5.56304,2.49784 5.56304,5.60054l0,145.7396c0,3.1027 -2.48112,5.60055 -5.56304,5.60055c-3.08193,0 -5.56304,-2.49785 -5.56304,-5.60055l0,-145.7396c0,-3.1027 2.48111,-5.60054 5.56304,-5.60054z"/>
 </g>
</svg>
