<svg width="128" height="128" xmlns="http://www.w3.org/2000/svg">
 <g>
   <path fill="#000000" d="m23.96875,8.03125c-4.41952,0 -7.96875,3.58048 -7.96875,8c0,4.41952 3.54923,7.96875 7.96875,7.96875l40.09375,0l0,8l-56.0625,0c-4.432,0 -8,3.568 -8,8l0,64c0,4.432 3.568,8 8,8l80,0c4.432,0 8,-3.568 8,-8l0,-2.59375l16,10.59375l16,0l0,-80l-16,0l-16,10.59375l0,-2.59375c0,-4.432 -3.568,-8 -8,-8l-8,0l0,-15.625c0.00268,-0.06297 -0.00122,-0.12416 0,-0.1875c-0.00122,-0.05274 0.00223,-0.10378 0,-0.15625c0,-0.15953 -0.0221,-0.31159 -0.03125,-0.46875c-0.2442,-4.19665 -3.67751,-7.53125 -7.9375,-7.53125l-48.0625,0z"/>
 </g>
</svg>
