<svg width="128" height="128" xmlns="http://www.w3.org/2000/svg">
 <g>
   <rect fill="#000000" ry="5.60055" transform="matrix(0.800204, 0.599728, -0.599728, 0.800204, 0, 0)" y="-131.13288" x="400.0979" height="156.94069" width="11.12608"/>
   <rect fill="#000000" ry="18.91511" y="1" x="37" height="83" width="54"/>
   <path fill="#000000" d="m24,30.90625l0,50.18747c0,10.479 8.42728,18.9063 18.90625,18.9063l42.1875,0c10.47897,0 18.90625,-8.4273 18.90625,-18.9063l0,-50.18747c0,-2.90625 -8,-2.90625 -8,0.10921l0,42.07829c0,10.47897 -8.42728,18.90627 -18.90625,18.90627l-26.1875,0c-10.47897,0 -18.90625,-8.4273 -18.90625,-18.90627l0,-41.9899c0,-3.10385 -8,-3.10385 -8,-0.1976z"/>
   <rect fill="#000000" y="120" x="32" height="7.99999" width="64"/>
   <rect fill="#000000" y="100" x="52" height="20.00001" width="24.00006"/>
 </g>
</svg>
