<svg width="128" height="128" xmlns="http://www.w3.org/2000/svg">
 <g>
   <rect fill="#000000" ry="5.60055" transform="matrix(0.800204, 0.599728, -0.599728, 0.800204, 0, 0)" y="-64.37409" x="82.75739" height="156.94069" width="11.12608"/>
   <path fill="#000000" d="m55.90625,1c-10.47897,0 -18.90625,8.42728 -18.90625,18.90625l0,45.1875c0,3.6426 1.04371,7.02727 2.8125,9.90625l48.53125,-64.75c-3.28745,-5.54371 -9.30768,-9.25 -16.25,-9.25l-16.1875,0zm-27.90625,27.75c-2,-0.0247 -4,0.70313 -4,2.15625l0,50.1875c0,3.95452 1.19234,7.62876 3.25,10.65625l7.125,-9.5c-1.49789,-2.71134 -2.375,-5.82571 -2.375,-9.15625l0,-42c0,-1.55193 -2,-2.31905 -4,-2.34375zm75.78125,1.40625l-7.78125,10.375l0,32.5625c0,10.47897 -8.42728,18.90625 -18.90625,18.90625l-19.65625,0l-6,8l0.5625,0l0,20l-15.5625,0l-3.40625,4.5625c-0.30707,0.40972 -0.64698,0.76244 -1.03125,1.0625l0,2.375l64,0l0,-8l-20,0l0,-20l9.09375,0c10.47897,0 18.90625,-8.42725 18.90625,-18.90625l0,-50.1875c0,-0.27717 -0.0871,-0.52473 -0.21875,-0.75zm-12.78125,17.0625l-27.5625,36.78125l8.65625,0c10.47897,0 18.90625,-8.42728 18.90625,-18.90625l0,-17.875z"/>
 </g>
</svg>
