<svg width="128" height="128" xmlns="http://www.w3.org/2000/svg">
 <g>
  <path fill="#000000" stroke-width="14.2108" d="m14.3542,127.98162c-8.8253,0.48525 -14.49294,-8.73057 -14.35162,-16.71961c0.77079,-9.17895 0.24851,-18.43792 0.38287,-27.65734c4.73502,0 9.47005,0 14.20507,0c0,10.05078 0,20.10156 0,30.15234c10.13347,0 20.26693,0 30.4004,0c0,4.74154 0,9.48308 0,14.22461c-10.21224,0 -20.42448,0 -30.63672,0z" id="path54"/>
  <path fill="#000000" stroke-width="14.2108" d="m14.3542,0.01838c-8.8253,-0.48525 -14.49294,8.73057 -14.35162,16.71961c0.77079,9.17895 0.24851,18.43792 0.38287,27.65734c4.73502,0 9.47005,0 14.20507,0c0,-10.05078 0,-20.10156 0,-30.15234c10.13347,0 20.26693,0 30.4004,0c0,-4.74154 0,-9.48308 0,-14.22461c-10.21224,0 -20.42448,0 -30.63672,0z" id="path1074"/>
  <path fill="#000000" stroke-width="14.2108" d="m113.65285,0.01885c5.23331,-0.30666 10.07032,3.16382 12.22066,7.82124c2.11738,4.22113 2.5659,9.13919 1.7326,13.74649c-0.0157,7.60308 0.0127,15.20614 0.0155,22.80922c-4.73502,0 -9.47005,0 -14.20508,0c0,-10.05078 0,-20.10156 0,-30.15234c-10.13346,0 -20.26693,0 -30.40039,0c0,-4.74154 0,-9.48307 0,-14.22461c10.21224,0 20.42448,0 30.63672,0l-0.00001,0z" id="path46"/>
  <path fill="#000000" stroke-width="14.2108" d="m113.6458,127.98162c8.8253,0.48525 14.49294,-8.73057 14.35162,-16.71961c-0.77079,-9.17895 -0.24851,-18.43792 -0.38287,-27.65734c-4.73502,0 -9.47005,0 -14.20507,0c0,10.05078 0,20.10156 0,30.15234c-10.13347,0 -20.26694,0 -30.4004,0c0,4.74154 0,9.48308 0,14.22461c10.21224,0 20.42448,0 30.63672,0z" id="path50"/>
 </g>
</svg>
