<svg width="128" height="128" xmlns="http://www.w3.org/2000/svg">
 <g>
  <path fill="#000000" id="rect2993" d="m47.99055,9.64063c-8.09033,0 -14.69035,12.04078 -15.78971,19.40625l-26.61964,0c-3.1027,0 -5.58761,2.49105 -5.58761,5.59375l0,76.71875c0,3.1027 2.48491,5.59375 5.58761,5.59375l116.8376,0c3.1027,0 5.58761,-2.49105 5.58761,-5.59375l0,-76.71875c0,-3.1027 -2.48491,-5.59375 -5.58761,-5.59375l-26.61964,0c-1.09936,-7.36547 -7.69938,-19.40625 -15.78971,-19.40625l-32.0189,0zm16.00945,25.75c19.91976,0 36.06835,16.07602 36.06835,35.90625c0,19.83023 -16.1486,35.90625 -36.06835,35.90625c-19.91976,0 -36.06835,-16.07602 -36.06835,-35.90625c0,-19.83023 16.1486,-35.90625 36.06835,-35.90625zm0,11.90625c-13.31467,0 -24.10835,10.74517 -24.10835,24c0,13.25483 10.79368,24 24.10835,24c13.31467,0 24.10835,-10.74517 24.10835,-24c0,-13.25483 -10.79368,-24 -24.10835,-24z"/>
  <rect fill="#cccccc" id="rect2997" y="0" x="0" height="0" width="0"/>
 </g>
</svg>
