<svg width="128" height="128" xmlns="http://www.w3.org/2000/svg">
 <g>
  <path fill="#000000" stroke-width="14.2108" d="m30.63672,83.62305c8.82529,-0.48525 14.49294,8.73056 14.35161,16.71961c-0.77078,9.17895 -0.24851,18.43792 -0.38286,27.65734c-4.73503,0 -9.47005,0 -14.20508,0c0,-10.05078 0,-20.10156 0,-30.15234c-10.13346,0 -20.26693,0 -30.40039,0c0,-4.74154 0,-9.48308 0,-14.22461c10.21224,0 20.42448,0 30.63672,0z" id="path54"/>
  <path fill="#000000" stroke-width="14.2108" d="m30.63672,44.37695c8.82529,0.48525 14.49294,-8.73056 14.35161,-16.71961c-0.77078,-9.17895 -0.24851,-18.43792 -0.38286,-27.65734c-4.73502,0 -9.47005,0 -14.20508,0c0,10.05078 0,20.10156 0,30.15234c-10.13346,0 -20.26692,0 -30.40039,0c0,4.74154 0,9.48308 0,14.22461c10.21224,0 20.42448,0 30.63672,0z" id="path1074"/>
  <path fill="#000000" stroke-width="14.2108" d="m97.36328,44.37695c-5.23331,0.30666 -10.07031,-3.16381 -12.22066,-7.82124c-2.11737,-4.22113 -2.56589,-9.13919 -1.7326,-13.74648c0.0157,-7.60309 -0.01271,-15.20615 -0.01549,-22.80923c4.73503,0 9.47005,0 14.20508,0c0,10.05078 0,20.10156 0,30.15234c10.13346,0 20.26693,0 30.40039,0c0,4.74154 0,9.48308 0,14.22461c-10.21224,0 -20.42448,0 -30.63672,0z" id="path46"/>
  <path fill="#000000" stroke-width="14.2108" d="m97.36328,83.62305c-8.82529,-0.48525 -14.49294,8.73056 -14.35161,16.71961c0.77078,9.17895 0.24851,18.43792 0.38286,27.65734c4.73503,0 9.47005,0 14.20508,0c0,-10.05078 0,-20.10156 0,-30.15234c10.13346,0 20.26693,0 30.40039,0c0,-4.74154 0,-9.48308 0,-14.22461c-10.21224,0 -20.42448,0 -30.63672,0z" id="path50"/>
 </g>
</svg>
